<svg id="Layer_1" data-name="Layer 1" xmlns="http://www.w3.org/2000/svg" viewBox="0 0 74 26"><defs><style>.cls-1{fill:#303031;}</style></defs><path class="cls-1" d="M3,6A4.72,4.72,0,0,1,5.29,4.17H15l.56.08q1.79,1.47.75,4.48H11.35a1.59,1.59,0,0,0-.2-1.9H8.74a1.89,1.89,0,0,0-.52.43L8,7.74,7.66,9.36l.16.32a9.34,9.34,0,0,0,1.65.16c.78,0,1.78,0,3,0,2.33,0,3.36.69,3.1,2.14l-.44,2.1-.28,1-.19.44-.4.87a3.23,3.23,0,0,1-.46.52,5.49,5.49,0,0,1-.57.47l-.88.32H1.12l.48-4.2a5.59,5.59,0,0,1,.91.67l7.26,0a1.1,1.1,0,0,0,1-.87c.16-.48,0-.73-.52-.75l-6.74,0-.71-.2-.36-.08-.22-.2a2.15,2.15,0,0,1-.34-.48Z"/><path class="cls-1" d="M19.21,6a2.22,2.22,0,0,0-.32-1.5H24.4l-2.14,10a.91.91,0,0,0,.32.75H25l.55-.35q.07-.29.18-.6c.07-.21.12-.42.18-.63l1.94-9.16,5.71,0a6,6,0,0,0-.47.91c-.14.32-.27.65-.4,1l-.2.59-3,14.12a4.36,4.36,0,0,1-3,3.61H15.79l.4-4,.08-.32.95.63a8.25,8.25,0,0,0,2.3.12h4.17a.82.82,0,0,0,.83-.79l.75-3.29c-.05.39-.37.61-.95.63l-5.87,0-.2-.08a2,2,0,0,1-.91-.87,4.19,4.19,0,0,1-.12-1.15v-.48Z"/><path class="cls-1" d="M46.06,16.66l.19,1.15H40.94l.32-1.39a2.41,2.41,0,0,1-2.46,1.35l-2.58,0c-1.8.14-2.72-.3-2.78-1.31a8.27,8.27,0,0,1,0-1.64,13.68,13.68,0,0,1,.42-2.08L35.51,5,35,4.25h6.07c-.19.37-.35.73-.5,1.09l-.41,1-1.71,8v.4a3,3,0,0,0,3.17-.2l.28-1.07,1.75-8.09,0-.48-.2-.71h5.83a4.7,4.7,0,0,0-.84,1.54Z"/><path class="cls-1" d="M52.68,19.52A4.4,4.4,0,0,1,49,21.3h-4.8l.63-2.89c2,.68,3.24,0,3.69-2l2.54-12h5l-3,14.16q-.07.32-.15.57A1.83,1.83,0,0,1,52.68,19.52Z"/><path class="cls-1" d="M57.36,5.83l.31-1.46h9.88l1.86.24c1.19.13,1.73,1.13,1.63,3l-1.67,7.89,0,.48a4.41,4.41,0,0,0,0,1.62l0,.24H64.1l0-1.15,0-.16a2.2,2.2,0,0,1-.8,1.07l-.51.24H56.92l-.71-.4a7.49,7.49,0,0,1-.12-4.16,5.33,5.33,0,0,1,1.46-3.37,7.11,7.11,0,0,1,3.77-1.07H65c.69-.13,1.07-.45,1.15-.95s0-.81-.52-.92H58.27L57,7.58Zm6.54,5.36H62.35c-.47,0-.75.41-.83,1.15l-.44,2,0,.56c.9.55,2,.43,3.22-.36,0-.08.06-.22.11-.44l.12-.59.48-2.26A2.17,2.17,0,0,0,63.9,11.19Z"/></svg>