<svg id="Layer_1" data-name="Layer 1" xmlns="http://www.w3.org/2000/svg" viewBox="0 0 74 26"><defs><style>.cls-1{fill:#fff;}</style></defs><path class="cls-1" d="M3.62,5.69A4.65,4.65,0,0,1,5.88,3.91h9.67l.56.08c1.19,1,1.44,2.47.75,4.48H12a1.64,1.64,0,0,0-.2-1.91H9.33A2.14,2.14,0,0,0,8.81,7l-.2.48L8.26,9.1l.16.32a9.09,9.09,0,0,0,1.64.16q1.17,0,3,0c2.32,0,3.35.69,3.09,2.14l-.44,2.1-.27,1-.2.44-.4.87a3.17,3.17,0,0,1-.45.52c-.18.16-.37.31-.58.47l-.87.32H1.71l.48-4.2a5.19,5.19,0,0,1,.91.67l7.26,0a1.1,1.1,0,0,0,1-.87c.16-.48,0-.73-.51-.76l-6.75,0-.71-.19L3,12a2.12,2.12,0,0,0-.21-.2,1.65,1.65,0,0,1-.34-.48Z"/><path class="cls-1" d="M19.8,5.73a2.2,2.2,0,0,0-.32-1.51H25l-2.14,10a.94.94,0,0,0,.32.75h2.38l.55-.36c.06-.18.12-.38.18-.59s.13-.42.18-.63L28.4,4.18l5.72,0a5.76,5.76,0,0,0-.48.92c-.13.31-.27.64-.4,1l-.2.59-3,14.12a4.37,4.37,0,0,1-3,3.61H16.39l.39-4,.08-.31,1,.63a8.62,8.62,0,0,0,2.3.12h4.16a.83.83,0,0,0,.83-.79l.76-3.29c-.06.39-.37.6-1,.63l-5.87,0-.19-.08a2,2,0,0,1-.92-.87,4.77,4.77,0,0,1-.11-1.15v-.48Z"/><path class="cls-1" d="M46.65,16.4l.2,1.15H41.53l.32-1.39a2.41,2.41,0,0,1-2.46,1.35l-2.58,0c-1.8.13-2.72-.3-2.77-1.31a7,7,0,0,1,0-1.64,12.55,12.55,0,0,1,.41-2.09L36.1,4.78,35.58,4h6.07c-.18.37-.35.73-.49,1.09s-.29.7-.42,1l-1.71,8v.39a3,3,0,0,0,3.18-.19l.27-1.07,1.75-8.09,0-.48L44,4h5.83A4.5,4.5,0,0,0,49,5.53Z"/><path class="cls-1" d="M53.27,19.25A4.41,4.41,0,0,1,49.62,21h-4.8l.64-2.9q3,1,3.69-2l2.53-12h5l-3,14.15c-.06.21-.11.41-.16.58A1.22,1.22,0,0,1,53.27,19.25Z"/><path class="cls-1" d="M58,5.57l.32-1.47h9.87L70,4.34c1.19.14,1.73,1.14,1.62,3L70,15.25l0,.47a4.06,4.06,0,0,0,0,1.63l0,.24h-5.2l0-1.15,0-.16a2.18,2.18,0,0,1-.79,1.07l-.52.24H57.51l-.71-.4A7.68,7.68,0,0,1,56.68,13a5.28,5.28,0,0,1,1.47-3.37,7.08,7.08,0,0,1,3.77-1.07H65.6c.69-.14,1.07-.45,1.15-1a.62.62,0,0,0-.51-.91H58.86l-1.27.6Zm6.54,5.36H63c-.48,0-.76.41-.84,1.15l-.43,2,0,.55c.9.56,2,.44,3.21-.35a4.44,4.44,0,0,0,.12-.44l.12-.59L65.64,11A2.06,2.06,0,0,0,64.49,10.93Z"/></svg>